<?xml version="1.0" encoding="UTF-8" standalone="no"?>
<svg
   xmlns:dc="http://purl.org/dc/elements/1.1/"
   xmlns:cc="http://creativecommons.org/ns#"
   xmlns:rdf="http://www.w3.org/1999/02/22-rdf-syntax-ns#"
   xmlns:svg="http://www.w3.org/2000/svg"
   xmlns="http://www.w3.org/2000/svg"
   xmlns:sodipodi="http://sodipodi.sourceforge.net/DTD/sodipodi-0.dtd"
   xmlns:inkscape="http://www.inkscape.org/namespaces/inkscape"
   version="1.1"
   x="0px"
   y="0px"
   viewBox="0 0 32 32"
   enable-background="new 0 0 256 256"
   xml:space="preserve"
   id="svg2"
   inkscape:version="0.91 r13725"
   sodipodi:docname="icon.svg"
   width="32"
   height="32"
   inkscape:export-filename="C:\Documents\projects\SimpleMigrations\icon.png"
   inkscape:export-xdpi="90"
   inkscape:export-ydpi="90"><metadata
     id="metadata30"><rdf:RDF><cc:Work
         rdf:about=""><dc:format>image/svg+xml</dc:format><dc:type
           rdf:resource="http://purl.org/dc/dcmitype/StillImage" /><dc:title></dc:title></cc:Work></rdf:RDF></metadata><defs
     id="defs28" /><sodipodi:namedview
     pagecolor="#ffffff"
     bordercolor="#666666"
     borderopacity="1"
     objecttolerance="10"
     gridtolerance="10"
     guidetolerance="10"
     inkscape:pageopacity="0"
     inkscape:pageshadow="2"
     inkscape:window-width="1920"
     inkscape:window-height="1059"
     id="namedview26"
     showgrid="true"
     inkscape:zoom="5.6568542"
     inkscape:cx="11.682555"
     inkscape:cy="11.830249"
     inkscape:window-x="-8"
     inkscape:window-y="-8"
     inkscape:window-maximized="1"
     inkscape:current-layer="svg2"><inkscape:grid
       type="xygrid"
       id="grid3358" /></sodipodi:namedview><g
     id="g4"
     style="fill:#000086;fill-opacity:1"
     transform="matrix(0.15212733,0,0,0.15212733,-2.8012647,-3.9054808)"><g
       id="g6"
       style="fill:#000086;fill-opacity:1"><g
         id="g8"
         style="fill:#000086;fill-opacity:1"><path
           d="m 114.892,216.991 c -9.011,-1.7 -17.662,-4.798 -25.713,-9.207 l 12.008,-21.928 c 5.744,3.146 11.915,5.355 18.341,6.568 l -4.636,24.567 z"
           id="path10"
           style="fill:#000086;fill-opacity:1"
           inkscape:connector-curvature="0" /></g><g
         id="g12"
         style="fill:#000086;fill-opacity:1"><path
           d="m 131.23,218.513 0,-25 c 9.079,0 17.831,-1.896 26.011,-5.633 l 10.39,22.739 c -11.465,5.238 -23.712,7.894 -36.401,7.894 z"
           id="path14"
           style="fill:#000086;fill-opacity:1"
           inkscape:connector-curvature="0" /></g><g
         id="g16"
         style="fill:#000086;fill-opacity:1"><path
           d="m 182.559,201.922 -14.65,-20.257 c 9.356,-6.767 16.658,-15.945 21.115,-26.54 l 23.044,9.693 c -6.235,14.821 -16.439,27.651 -29.509,37.104 z"
           id="path18"
           style="fill:#000086;fill-opacity:1"
           inkscape:connector-curvature="0" /></g><g
         id="g20"
         style="fill:#000086;fill-opacity:1"><path
           d="m 217.603,145.916 -24.632,-4.275 c 0.613,-3.533 0.924,-7.165 0.924,-10.793 0,-34.554 -28.112,-62.666 -62.666,-62.666 -34.554,0 -62.666,28.112 -62.666,62.666 l -25,0 c 0,-48.339 39.327,-87.666 87.666,-87.666 48.339,0 87.666,39.327 87.666,87.666 10e-4,5.057 -0.435,10.127 -1.292,15.068 z"
           id="path22"
           style="fill:#000086;fill-opacity:1"
           inkscape:connector-curvature="0" /></g></g><polygon
       points="56.223,174.132 28.283,125.738 84.164,125.738 "
       id="polygon24"
       style="clip-rule:evenodd;fill:#000086;fill-opacity:1;fill-rule:evenodd" /></g><text
     xml:space="preserve"
     style="font-style:normal;font-weight:normal;font-size:18.96342278px;line-height:125%;font-family:sans-serif;letter-spacing:0px;word-spacing:0px;fill:#000000;fill-opacity:1;stroke:none;stroke-width:1px;stroke-linecap:butt;stroke-linejoin:miter;stroke-opacity:1"
     x="10.400234"
     y="22.904408"
     id="text4161"
     sodipodi:linespacing="125%"><tspan
       sodipodi:role="line"
       id="tspan4163"
       x="10.400234"
       y="22.904408"
       style="font-style:normal;font-variant:normal;font-weight:bold;font-stretch:normal;font-family:sans-serif;-inkscape-font-specification:'sans-serif Bold'">S</tspan></text>
</svg>